<?xml version="1.0" encoding="utf-8"?>
<!-- Generator: Adobe Illustrator 19.1.0, SVG Export Plug-In . SVG Version: 6.00 Build 0)  -->
<svg version="1.1" id="Layer_1" xmlns="http://www.w3.org/2000/svg" xmlns:xlink="http://www.w3.org/1999/xlink" x="0px" y="0px"
	 viewBox="0 0 147.5 148" style="enable-background:new 0 0 147.5 148;" xml:space="preserve">
<style type="text/css">
	.st0{fill:none;}
	.st1{fill:none;stroke:#000000;stroke-linejoin:round;stroke-miterlimit:10;}
	.st2{fill:#38761D;}
	.st3{fill:#CBCAA9;}
	.st4{fill-opacity:0;}
</style>
<g>
	<rect x="-158.6" y="-569.9" class="st0" width="1292" height="1012"/>
	<path d="M2.7,55.1h51.6V3.5h41.1v51.6h51.6v41.1H95.3v51.6H54.3V96.2H2.7V55.1z"/>
	<path class="st1" d="M2.7,55.1h51.6V3.5h41.1v51.6h51.6v41.1H95.3v51.6H54.3V96.2H2.7V55.1z"/>
	<path d="M3.3,53.6h51.6V2.1H96v51.6h51.6v41.1H96v51.6H54.9V94.7H3.3V53.6z"/>
	<path class="st1" d="M3.3,53.6h51.6V2.1H96v51.6h51.6v41.1H96v51.6H54.9V94.7H3.3V53.6z"/>
	<path d="M3.3,55.3h51.6V3.8H96v51.6h51.6v41.1H96V148H54.9V96.4H3.3V55.3z"/>
	<path class="st1" d="M3.3,55.3h51.6V3.8H96v51.6h51.6v41.1H96V148H54.9V96.4H3.3V55.3z"/>
	<path d="M1.9,55.3h51.6V3.7h41.1v51.6h51.6v41.1H94.5V148H53.4V96.4H1.9V55.3z"/>
	<path class="st1" d="M1.9,55.3h51.6V3.7h41.1v51.6h51.6v41.1H94.5V148H53.4V96.4H1.9V55.3z"/>
	<path d="M8.8,74.2L8.8,74.2c0-36.2,29.4-65.6,65.6-65.6l0,0c17.4,0,34.1,6.9,46.4,19.2c12.3,12.3,19.2,29,19.2,46.4l0,0
		c0,36.2-29.4,65.6-65.6,65.6l0,0C38.2,139.8,8.8,110.4,8.8,74.2z"/>
	<path class="st2" d="M6.7,72.1L6.7,72.1c0-36.2,29.4-65.6,65.6-65.6l0,0c17.4,0,34.1,6.9,46.4,19.2c12.3,12.3,19.2,29,19.2,46.4
		l0,0c0,36.2-29.4,65.6-65.6,65.6l0,0C36.1,137.7,6.7,108.4,6.7,72.1z"/>
	<path class="st1" d="M6.7,72.1L6.7,72.1c0-36.2,29.4-65.6,65.6-65.6l0,0c17.4,0,34.1,6.9,46.4,19.2c12.3,12.3,19.2,29,19.2,46.4
		l0,0c0,36.2-29.4,65.6-65.6,65.6l0,0C36.1,137.7,6.7,108.4,6.7,72.1z"/>
	<path d="M1.9,53.6h51.6V2.1h41.1v51.6h51.6v41.1H94.5v51.6H53.4V94.7H1.9V53.6z"/>
	<path class="st1" d="M1.9,53.6h51.6V2.1h41.1v51.6h51.6v41.1H94.5v51.6H53.4V94.7H1.9V53.6z"/>
	<path class="st3" d="M0,51.6h51.6V0h41.1v51.6h51.6v41.1H92.7v51.6H51.6V92.7H0V51.6z"/>
	<path class="st1" d="M0,51.6h51.6V0h41.1v51.6h51.6v41.1H92.7v51.6H51.6V92.7H0V51.6z"/>
	<path d="M126.4,63.7l10,8.1l-10,8.1V63.7z"/>
	<path class="st1" d="M126.4,63.7l10,8.1l-10,8.1V63.7z"/>
	<path d="M17.8,63.7l-10,8.1l10,8.1V63.7z"/>
	<path class="st1" d="M17.8,63.7l-10,8.1l10,8.1V63.7z"/>
	<path class="st4" d="M51.3,51.6l41.7,41.7"/>
	<path class="st1" d="M51.3,51.6l41.7,41.7"/>
	<path class="st4" d="M92.5,51.8L51.8,92.5"/>
	<path class="st1" d="M92.5,51.8L51.8,92.5"/>
	<path d="M64.1,126.1l8.1,10l8.1-10H64.1z"/>
	<path class="st1" d="M64.1,126.1l8.1,10l8.1-10H64.1z"/>
	<path d="M61.9,71.8L61.9,71.8c0-5.7,4.6-10.3,10.3-10.3l0,0c2.7,0,5.3,1.1,7.2,3c1.9,1.9,3,4.5,3,7.2l0,0c0,5.7-4.6,10.3-10.3,10.3
		l0,0C66.5,82,61.9,77.4,61.9,71.8z"/>
	<path class="st1" d="M61.9,71.8L61.9,71.8c0-5.7,4.6-10.3,10.3-10.3l0,0c2.7,0,5.3,1.1,7.2,3c1.9,1.9,3,4.5,3,7.2l0,0
		c0,5.7-4.6,10.3-10.3,10.3l0,0C66.5,82,61.9,77.4,61.9,71.8z"/>
	<path class="st2" d="M128.7,65.7l7.6,6.1l-7.6,6.1V65.7z"/>
	<path class="st1" d="M128.7,65.7l7.6,6.1l-7.6,6.1V65.7z"/>
	<path class="st2" d="M17.8,67.2l-7.6,6.1l7.6,6.1V67.2z"/>
	<path class="st1" d="M17.8,67.2l-7.6,6.1l7.6,6.1V67.2z"/>
	<path class="st2" d="M78.5,128.1l-6.1,7.6l-6.1-7.6H78.5z"/>
	<path class="st1" d="M78.5,128.1l-6.1,7.6l-6.1-7.6H78.5z"/>
	<path class="st2" d="M64.1,72.8L64.1,72.8c0-4.9,4-8.9,8.9-8.9l0,0c2.4,0,4.6,0.9,6.3,2.6c1.7,1.7,2.6,3.9,2.6,6.3l0,0
		c0,4.9-4,8.9-8.9,8.9l0,0C68.1,81.7,64.1,77.7,64.1,72.8z"/>
	<path class="st1" d="M64.1,72.8L64.1,72.8c0-4.9,4-8.9,8.9-8.9l0,0c2.4,0,4.6,0.9,6.3,2.6c1.7,1.7,2.6,3.9,2.6,6.3l0,0
		c0,4.9-4,8.9-8.9,8.9l0,0C68.1,81.7,64.1,77.7,64.1,72.8z"/>
	<path d="M64.1,17.5l8.1-10l8.1,10H64.1z"/>
	<path class="st1" d="M64.1,17.5l8.1-10l8.1,10H64.1z"/>
	<path class="st2" d="M78.5,17.4l-6.1-7.6l-6.1,7.6H78.5z"/>
	<path class="st1" d="M78.5,17.4l-6.1-7.6l-6.1,7.6H78.5z"/>
</g>
</svg>
